# xmcd
#
# Track frame offsets:
#	150
#	11845
#	22170
#	36780
#	46120
#	57057
#	73615
#	84487
#	100342
#	113545
#	125355
#	137950
#
# Disc length: 1964 seconds
# Revision: 6
# Processed by: cddbd v1.5.2PL0 Copyright (c) Steve Scherf et al.
# Submitted via: dBpowerAMP V12.0
#
DISCID=9c07aa0c
DTITLE=Neko Case and Her Boyfriends - The Virginian
DYEAR=1997
DGENRE=Americana
TTITLE0=Timber
TTITLE1=Bowling Green
TTITLE2=Jettison
TTITLE3=High On Cruel
TTITLE4=Karoline
TTITLE5=Lonely Old Lies
TTITLE6=Honky Tonk Hiccups
TTITLE7=The Virginian
TTITLE8=Duchess
TTITLE9=Thanks A Lot
TTITLE10=Somebody Led Me Away
TTITLE11=Misfire
EXTD=
EXTT0=
EXTT1=
EXTT2=
EXTT3=
EXTT4=
EXTT5=
EXTT6=
EXTT7=
EXTT8=
EXTT9=
EXTT10=
EXTT11=
PLAYORDER=
